<?xml version="1.0" standalone="no"?>
<!DOCTYPE svg PUBLIC "-//W3C//DTD SVG 20010904//EN"
 "http://www.w3.org/TR/2001/REC-SVG-20010904/DTD/svg10.dtd">
<svg version="1.0" xmlns="http://www.w3.org/2000/svg"
 width="512.000000pt" height="512.000000pt" viewBox="0 0 512.000000 512.000000"
 preserveAspectRatio="xMidYMid meet">

<g transform="translate(0.000000,512.000000) scale(0.100000,-0.100000)"
fill="#000000" stroke="none">
<path d="M1679 3983 c-51 -13 -31 -218 32 -348 37 -75 91 -149 125 -171 l25
-17 165 164 c90 90 164 169 164 175 0 20 -94 98 -158 132 -103 55 -274 86
-353 65z m223 -63 c64 -19 170 -81 197 -113 19 -24 11 -21 -54 18 -32 19 -92
48 -134 65 -42 17 -85 35 -96 40 -40 18 20 11 87 -10z"/>
<path d="M2795 3568 c-11 -6 -21 -12 -23 -14 -10 -8 -62 -182 -78 -261 -10
-51 -21 -93 -24 -93 -3 0 -39 28 -80 62 -161 130 -317 219 -389 222 l-46 1 2
-41 c3 -74 94 -232 222 -387 44 -55 61 -81 52 -86 -7 -4 -49 -16 -94 -25 -144
-31 -242 -65 -259 -90 -17 -24 -8 -66 17 -82 30 -20 165 -65 265 -89 41 -10
78 -21 82 -24 4 -4 -26 -52 -68 -106 -184 -240 -229 -329 -189 -368 24 -24 58
-21 123 11 206 103 482 331 759 627 133 142 193 216 279 346 122 183 149 262
101 294 -19 12 -30 13 -58 4 -44 -15 -143 -80 -296 -196 -75 -57 -125 -88
-127 -81 -2 7 -14 60 -26 118 -34 160 -57 226 -87 249 -30 24 -31 24 -58 9z"/>
<path d="M1379 2041 c-53 -54 -34 -148 36 -171 45 -15 98 7 120 50 52 100 -77
200 -156 121z"/>
<path d="M973 1815 c-19 -8 -35 -10 -38 -4 -4 5 -49 9 -101 9 l-94 0 0 -350 0
-350 95 0 95 0 0 111 c0 110 0 110 23 102 12 -4 56 -8 98 -8 67 0 81 4 125 30
71 44 109 122 108 219 -2 114 -47 190 -139 232 -57 27 -123 30 -172 9z m96
-192 c45 -52 7 -133 -63 -133 -60 0 -99 66 -71 120 29 56 90 62 134 13z"/>
<path d="M2673 1815 c-18 -8 -33 -10 -33 -5 0 6 -43 10 -100 10 l-100 0 0
-350 0 -350 100 0 100 0 0 110 0 110 26 -10 c33 -13 119 -13 164 0 48 13 106
63 132 113 30 56 32 194 5 248 -55 111 -193 168 -294 124z m70 -167 c33 -17
46 -39 47 -76 0 -43 -38 -82 -80 -82 -84 0 -110 130 -31 159 35 13 39 13 64
-1z"/>
<path d="M3176 1815 c-21 -7 -56 -31 -77 -51 -52 -51 -74 -111 -73 -201 1 -59
6 -80 31 -125 44 -78 96 -111 183 -116 50 -3 78 0 102 12 20 11 34 13 36 6 2
-6 41 -10 98 -10 l94 0 0 245 0 245 -94 0 c-57 0 -96 -4 -98 -10 -2 -7 -16 -5
-40 5 -46 18 -110 19 -162 0z m187 -187 c24 -29 22 -86 -5 -115 -46 -49 -138
-12 -138 54 0 78 94 119 143 61z"/>
<path d="M1350 1575 l0 -245 100 0 100 0 -2 243 -3 242 -97 3 -98 3 0 -246z"/>
<path d="M1626 1673 c24 -82 56 -192 71 -246 l26 -98 96 3 96 3 35 122 c19 68
37 123 40 123 3 0 21 -56 40 -125 l35 -125 96 0 96 0 26 98 c15 53 47 163 71
245 l44 147 -94 0 c-89 0 -94 -1 -99 -22 -43 -183 -53 -221 -58 -208 -2 8 -18
62 -34 120 l-30 105 -93 0 -94 0 -35 -119 c-38 -132 -35 -132 -66 9 -9 44 -19
88 -21 98 -5 15 -18 17 -99 17 l-93 0 44 -147z"/>
<path d="M3623 1798 c2 -13 33 -123 68 -245 l64 -223 96 0 96 0 32 118 c18 64
35 124 38 132 5 15 72 -199 73 -232 0 -16 11 -18 98 -18 l98 0 67 230 c37 126
70 237 73 245 5 13 -9 15 -89 15 l-95 0 -16 -69 c-9 -38 -21 -93 -27 -122 -14
-63 -17 -58 -55 84 l-29 108 -94 -3 -95 -3 -32 -113 c-17 -62 -33 -115 -36
-117 -3 -3 -16 48 -29 112 l-25 118 -93 3 c-93 3 -93 3 -88 -20z"/>
</g>
</svg>
