<svg xmlns="http://www.w3.org/2000/svg" xmlns:xlink="http://www.w3.org/1999/xlink" viewBox="0 0 801.35 140"><defs><linearGradient id="Градієнт_без_назви_2" y1="82.6" x2="801.35" y2="82.6" gradientUnits="userSpaceOnUse"><stop offset="0" stop-color="#08102b"/><stop offset="0.05" stop-color="#05163b"/><stop offset="0.12" stop-color="#021d4e"/><stop offset="0.2" stop-color="#012159"/><stop offset="0.28" stop-color="#00225d"/><stop offset="0.67" stop-color="#04437d"/><stop offset="1" stop-color="#1282a2"/></linearGradient></defs><g id="Шар_2" data-name="Шар 2"><g id="Шар_1-2" data-name="Шар 1"><path d="M191.66,117.6h-65l32.48-45.78H129.5v-16h61.88L161.7,100.94h30Z" transform="translate(0 -12.6)" style="fill:url(#Градієнт_без_назви_2)"/><path d="M271.46,117.6h-21v-7.42c-4.2,6.3-13.3,8.82-21.14,8.82-17.5,0-30.66-15.12-30.66-32.2s13.16-32.34,30.66-32.34c7.84,0,15.68,2.24,21.14,9V56h21Zm-35.7-46.2c-8.4,0-14.7,7.28-14.7,15.4s6.3,15.4,14.7,15.4,14.7-7.28,14.7-15.4S244.16,71.4,235.76,71.4Z" transform="translate(0 -12.6)" style="fill:url(#Градієнт_без_назви_2)"/><path d="M303.38,56l12.18,18.9L327.74,56H352.1L329,86.52l25.06,31.08H328.44l-12.88-19-12.88,19H277.06l25.06-31.08L279,56Z" transform="translate(0 -12.6)" style="fill:url(#Градієнт_без_назви_2)"/><path d="M370.86,22.4a12.32,12.32,0,1,1-12.32,12.32A12.34,12.34,0,0,1,370.86,22.4Zm-10.5,95.2V55.86h21V117.6Z" transform="translate(0 -12.6)" style="fill:url(#Градієнт_без_назви_2)"/><path d="M468.16,117.6h-21v-7.42C443,116.48,433.86,119,426,119c-17.5,0-30.66-15.12-30.66-32.2S408.52,54.46,426,54.46c7.84,0,15.68,2.24,21.14,9V12.6h21Zm-35.7-46.2c-8.4,0-14.7,7.28-14.7,15.4s6.3,15.4,14.7,15.4,14.7-7.28,14.7-15.4S440.86,71.4,432.46,71.4Z" transform="translate(0 -12.6)" style="fill:url(#Градієнт_без_назви_2)"/><path d="M554.25,117.6h-21v-7.42c-4.2,6.3-13.3,8.82-21.14,8.82-17.5,0-30.66-15.12-30.66-32.2s13.16-32.34,30.66-32.34c7.84,0,15.68,2.24,21.14,9V56h21ZM518.56,71.4c-8.4,0-14.7,7.28-14.7,15.4s6.3,15.4,14.7,15.4,14.7-7.28,14.7-15.4S527,71.4,518.56,71.4Z" transform="translate(0 -12.6)" style="fill:url(#Градієнт_без_назви_2)"/><path d="M571.05,152.6V55.86h21v7.56c5.46-6.72,13.16-9,21.14-9,17.5,0,30.66,15.26,30.66,32.34S630.69,119,613.19,119c-8,0-16.94-2.52-21.14-8.82V152.6Zm35.7-50.4c8.4,0,14.7-7.28,14.7-15.4s-6.3-15.4-14.7-15.4-14.7,7.28-14.7,15.4S598.35,102.2,606.75,102.2Z" transform="translate(0 -12.6)" style="fill:url(#Градієнт_без_назви_2)"/><path d="M657.15,152.6V55.86h21v7.56c5.46-6.72,13.16-9,21.14-9,17.5,0,30.66,15.26,30.66,32.34S716.79,119,699.29,119c-8,0-16.94-2.52-21.14-8.82V152.6Zm35.7-50.4c8.4,0,14.7-7.28,14.7-15.4s-6.3-15.4-14.7-15.4-14.7,7.28-14.7,15.4S684.45,102.2,692.85,102.2Z" transform="translate(0 -12.6)" style="fill:url(#Градієнт_без_назви_2)"/><path d="M779.79,74.62c-.7-5.6-5.88-7.14-9.94-7.14s-8.4,2.1-8.4,5.74c0,8.68,39.9-.14,39.9,25.9,0,14.56-12.46,19.88-30.38,19.88-18.34,0-32.2-6.86-33.32-24.36h20.86c0,9.24,8.26,9.8,12.88,9.8s8.82-1.82,8.82-5.18c0-13-39.9-2.8-39.9-25.2,0-12.6,9.66-19.6,30.1-19.6,16.24,0,28.14,6,30,20.16Z" transform="translate(0 -12.6)" style="fill:url(#Градієнт_без_назви_2)"/><path d="M191.66,117.6h-65l32.48-45.78H129.5v-16h61.88L161.7,100.94h30Z" transform="translate(0 -12.6)" style="fill:url(#Градієнт_без_назви_2)"/><path d="M271.46,117.6h-21v-7.42c-4.2,6.3-13.3,8.82-21.14,8.82-17.5,0-30.66-15.12-30.66-32.2s13.16-32.34,30.66-32.34c7.84,0,15.68,2.24,21.14,9V56h21Zm-35.7-46.2c-8.4,0-14.7,7.28-14.7,15.4s6.3,15.4,14.7,15.4,14.7-7.28,14.7-15.4S244.16,71.4,235.76,71.4Z" transform="translate(0 -12.6)" style="fill:url(#Градієнт_без_назви_2)"/><path d="M303.38,56l12.18,18.9L327.74,56H352.1L329,86.52l25.06,31.08H328.44l-12.88-19-12.88,19H277.06l25.06-31.08L279,56Z" transform="translate(0 -12.6)" style="fill:url(#Градієнт_без_назви_2)"/><path d="M370.86,22.4a12.32,12.32,0,1,1-12.32,12.32A12.34,12.34,0,0,1,370.86,22.4Zm-10.5,95.2V55.86h21V117.6Z" transform="translate(0 -12.6)" style="fill:url(#Градієнт_без_назви_2)"/><path d="M468.16,117.6h-21v-7.42C443,116.48,433.86,119,426,119c-17.5,0-30.66-15.12-30.66-32.2S408.52,54.46,426,54.46c7.84,0,15.68,2.24,21.14,9V12.6h21Zm-35.7-46.2c-8.4,0-14.7,7.28-14.7,15.4s6.3,15.4,14.7,15.4,14.7-7.28,14.7-15.4S440.86,71.4,432.46,71.4Z" transform="translate(0 -12.6)" style="fill:url(#Градієнт_без_назви_2)"/><path d="M554.25,117.6h-21v-7.42c-4.2,6.3-13.3,8.82-21.14,8.82-17.5,0-30.66-15.12-30.66-32.2s13.16-32.34,30.66-32.34c7.84,0,15.68,2.24,21.14,9V56h21ZM518.56,71.4c-8.4,0-14.7,7.28-14.7,15.4s6.3,15.4,14.7,15.4,14.7-7.28,14.7-15.4S527,71.4,518.56,71.4Z" transform="translate(0 -12.6)" style="fill:url(#Градієнт_без_назви_2)"/><path d="M571.05,152.6V55.86h21v7.56c5.46-6.72,13.16-9,21.14-9,17.5,0,30.66,15.26,30.66,32.34S630.69,119,613.19,119c-8,0-16.94-2.52-21.14-8.82V152.6Zm35.7-50.4c8.4,0,14.7-7.28,14.7-15.4s-6.3-15.4-14.7-15.4-14.7,7.28-14.7,15.4S598.35,102.2,606.75,102.2Z" transform="translate(0 -12.6)" style="fill:url(#Градієнт_без_назви_2)"/><path d="M657.15,152.6V55.86h21v7.56c5.46-6.72,13.16-9,21.14-9,17.5,0,30.66,15.26,30.66,32.34S716.79,119,699.29,119c-8,0-16.94-2.52-21.14-8.82V152.6Zm35.7-50.4c8.4,0,14.7-7.28,14.7-15.4s-6.3-15.4-14.7-15.4-14.7,7.28-14.7,15.4S684.45,102.2,692.85,102.2Z" transform="translate(0 -12.6)" style="fill:url(#Градієнт_без_назви_2)"/><path d="M779.79,74.62c-.7-5.6-5.88-7.14-9.94-7.14s-8.4,2.1-8.4,5.74c0,8.68,39.9-.14,39.9,25.9,0,14.56-12.46,19.88-30.38,19.88-18.34,0-32.2-6.86-33.32-24.36h20.86c0,9.24,8.26,9.8,12.88,9.8s8.82-1.82,8.82-5.18c0-13-39.9-2.8-39.9-25.2,0-12.6,9.66-19.6,30.1-19.6,16.24,0,28.14,6,30,20.16Z" transform="translate(0 -12.6)" style="fill:url(#Градієнт_без_назви_2)"/><path d="M191.66,117.6h-65l32.48-45.78H129.5v-16h61.88L161.7,100.94h30Z" transform="translate(0 -12.6)" style="fill:url(#Градієнт_без_назви_2)"/><path d="M271.46,117.6h-21v-7.42c-4.2,6.3-13.3,8.82-21.14,8.82-17.5,0-30.66-15.12-30.66-32.2s13.16-32.34,30.66-32.34c7.84,0,15.68,2.24,21.14,9V56h21Zm-35.7-46.2c-8.4,0-14.7,7.28-14.7,15.4s6.3,15.4,14.7,15.4,14.7-7.28,14.7-15.4S244.16,71.4,235.76,71.4Z" transform="translate(0 -12.6)" style="fill:url(#Градієнт_без_назви_2)"/><path d="M303.38,56l12.18,18.9L327.74,56H352.1L329,86.52l25.06,31.08H328.44l-12.88-19-12.88,19H277.06l25.06-31.08L279,56Z" transform="translate(0 -12.6)" style="fill:url(#Градієнт_без_назви_2)"/><path d="M370.86,22.4a12.32,12.32,0,1,1-12.32,12.32A12.34,12.34,0,0,1,370.86,22.4Zm-10.5,95.2V55.86h21V117.6Z" transform="translate(0 -12.6)" style="fill:url(#Градієнт_без_назви_2)"/><path d="M468.16,117.6h-21v-7.42C443,116.48,433.86,119,426,119c-17.5,0-30.66-15.12-30.66-32.2S408.52,54.46,426,54.46c7.84,0,15.68,2.24,21.14,9V12.6h21Zm-35.7-46.2c-8.4,0-14.7,7.28-14.7,15.4s6.3,15.4,14.7,15.4,14.7-7.28,14.7-15.4S440.86,71.4,432.46,71.4Z" transform="translate(0 -12.6)" style="fill:url(#Градієнт_без_назви_2)"/><path d="M554.25,117.6h-21v-7.42c-4.2,6.3-13.3,8.82-21.14,8.82-17.5,0-30.66-15.12-30.66-32.2s13.16-32.34,30.66-32.34c7.84,0,15.68,2.24,21.14,9V56h21ZM518.56,71.4c-8.4,0-14.7,7.28-14.7,15.4s6.3,15.4,14.7,15.4,14.7-7.28,14.7-15.4S527,71.4,518.56,71.4Z" transform="translate(0 -12.6)" style="fill:url(#Градієнт_без_назви_2)"/><path d="M571.05,152.6V55.86h21v7.56c5.46-6.72,13.16-9,21.14-9,17.5,0,30.66,15.26,30.66,32.34S630.69,119,613.19,119c-8,0-16.94-2.52-21.14-8.82V152.6Zm35.7-50.4c8.4,0,14.7-7.28,14.7-15.4s-6.3-15.4-14.7-15.4-14.7,7.28-14.7,15.4S598.35,102.2,606.75,102.2Z" transform="translate(0 -12.6)" style="fill:url(#Градієнт_без_назви_2)"/><path d="M657.15,152.6V55.86h21v7.56c5.46-6.72,13.16-9,21.14-9,17.5,0,30.66,15.26,30.66,32.34S716.79,119,699.29,119c-8,0-16.94-2.52-21.14-8.82V152.6Zm35.7-50.4c8.4,0,14.7-7.28,14.7-15.4s-6.3-15.4-14.7-15.4-14.7,7.28-14.7,15.4S684.45,102.2,692.85,102.2Z" transform="translate(0 -12.6)" style="fill:url(#Градієнт_без_назви_2)"/><path d="M779.79,74.62c-.7-5.6-5.88-7.14-9.94-7.14s-8.4,2.1-8.4,5.74c0,8.68,39.9-.14,39.9,25.9,0,14.56-12.46,19.88-30.38,19.88-18.34,0-32.2-6.86-33.32-24.36h20.86c0,9.24,8.26,9.8,12.88,9.8s8.82-1.82,8.82-5.18c0-13-39.9-2.8-39.9-25.2,0-12.6,9.66-19.6,30.1-19.6,16.24,0,28.14,6,30,20.16Z" transform="translate(0 -12.6)" style="fill:url(#Градієнт_без_назви_2)"/><path d="M0,36.6v90a9,9,0,0,0,9,9H99a9,9,0,0,0,9-9v-90a9,9,0,0,0-9-9H9A9,9,0,0,0,0,36.6Zm87.75,78.75L54,81.6h0L20.25,115.35V81.6h0L54,47.85V81.6H87.75Z" transform="translate(0 -12.6)" style="fill:url(#Градієнт_без_назви_2)"/></g></g></svg>